# xmcd
#
# Track frame offsets:
#  150
#  13835
#  24017
#  42774
#  55374
#  74453
#  88571
#  99098
#  110850
#  127062
#  144084
#  159403
#  178980
#
# Disc length: 2622 seconds
#
# Revision: 0
# Processed by: cddbd v1.5.1PL2 Copyright (c) Steve Scherf et al.
# Submitted via: Collectorz.com_Music_Collector 6.11
#
DISCID=a90a3c0d
DTITLE=Harald Thune - Johnny Cash Special
DYEAR=2004
DGENRE=Country
TTITLE0=Highwayman
TTITLE1=Cry, Cry, Cry
TTITLE2=One
TTITLE3=Going by the Book
TTITLE4=Ghost Riders in the Sky
TTITLE5=Wanted Man
TTITLE6=Solitary Man
TTITLE7=Big River
TTITLE8=Flesh and Blood
TTITLE9=City of New Orleans
TTITLE10=Personal Jesus
TTITLE11=When the Man Comes Around
TTITLE12=Sunday Morning Coming Down
EXTD=
EXTT0=
EXTT1=
EXTT2=
EXTT3=
EXTT4=
EXTT5=
EXTT6=
EXTT7=
EXTT8=
EXTT9=
EXTT10=
EXTT11=
EXTT12=
PLAYORDER=
